<svg width="17" height="18" viewBox="0 0 17 18" fill="none" xmlns="http://www.w3.org/2000/svg">
<path d="M8.56133 0.666668C3.96633 0.666668 0.227997 4.405 0.227997 9C0.227997 13.595 3.96633 17.3333 8.56133 17.3333C13.1563 17.3333 16.8947 13.595 16.8947 9C16.8947 4.405 13.1563 0.666668 8.56133 0.666668ZM9.39466 13.0958V14H7.728V13.1C5.77883 12.7942 5.228 11.4317 5.228 10.6667H6.89466C6.90383 10.7858 7.02716 11.5 8.56133 11.5C9.71133 11.5 10.228 11.0125 10.228 10.6667C10.228 10.3967 10.228 9.83333 8.56133 9.83333C5.66133 9.83333 5.228 8.26667 5.228 7.33333C5.228 6.26 6.0855 5.18 7.728 4.90417V4.01H9.39466V4.93417C10.8397 5.27583 11.3947 6.47833 11.3947 7.33333H10.5613L9.728 7.34833C9.71633 7.03167 9.54883 6.5 8.56133 6.5C7.47883 6.5 6.89466 6.93 6.89466 7.33333C6.89466 7.645 6.89466 8.16667 8.56133 8.16667C11.4613 8.16667 11.8947 9.73333 11.8947 10.6667C11.8947 11.74 11.0372 12.82 9.39466 13.0958Z" fill="url(#paint0_linear_136_3164)"/>
<defs>
<linearGradient id="paint0_linear_136_3164" x1="0.227997" y1="9" x2="16.8947" y2="9" gradientUnits="userSpaceOnUse">
<stop stop-color="#4EB4BF"/>
<stop offset="1" stop-color="#2BD9A8"/>
</linearGradient>
</defs>
</svg>
