<svg width="18" height="24" viewBox="0 0 18 24" fill="none" xmlns="http://www.w3.org/2000/svg">
<path d="M16.0749 11C15.7874 10.625 15.4374 10.3 15.1124 9.975C14.2749 9.225 13.3249 8.6875 12.5249 7.9C10.6624 6.075 10.2499 3.0625 11.4374 0.75C10.2499 1.0375 9.21244 1.6875 8.32494 2.4C5.08744 5 3.81244 9.5875 5.33744 13.525C5.38744 13.65 5.43744 13.775 5.43744 13.9375C5.43744 14.2125 5.24994 14.4625 4.99994 14.5625C4.71244 14.6875 4.41244 14.6125 4.17494 14.4125C4.104 14.3531 4.04466 14.281 3.99994 14.2C2.58744 12.4125 2.36244 9.85 3.31244 7.8C1.22494 9.5 0.0874401 12.375 0.24994 15.0875C0.32494 15.7125 0.39994 16.3375 0.61244 16.9625C0.78744 17.7125 1.12494 18.4625 1.49994 19.125C2.84994 21.2875 5.18744 22.8375 7.69994 23.15C10.3749 23.4875 13.2374 23 15.2874 21.15C17.5749 19.075 18.3749 15.75 17.1999 12.9L17.0374 12.575C16.7749 12 16.0749 11 16.0749 11ZM12.1249 18.875C11.7749 19.175 11.1999 19.5 10.7499 19.625C9.34994 20.125 7.94994 19.425 7.12494 18.6C8.61244 18.25 9.49994 17.15 9.76244 16.0375C9.97494 15.0375 9.57494 14.2125 9.41244 13.25C9.26244 12.325 9.28744 11.5375 9.62494 10.675C9.86244 11.15 10.1124 11.625 10.4124 12C11.3749 13.25 12.8874 13.8 13.2124 15.5C13.2624 15.675 13.2874 15.85 13.2874 16.0375C13.3249 17.0625 12.8749 18.1875 12.1249 18.875Z" fill="url(#paint0_linear_230_1985)"/>
<defs>
<linearGradient id="paint0_linear_230_1985" x1="0.234619" y1="11.9997" x2="17.7378" y2="11.9997" gradientUnits="userSpaceOnUse">
<stop stop-color="#4EB4BF"/>
<stop offset="1" stop-color="#2BD9A8"/>
</linearGradient>
</defs>
</svg>
