<svg width="22" height="14" viewBox="0 0 22 14" fill="none" xmlns="http://www.w3.org/2000/svg">
<path d="M16.857 0.365296C13.9064 -0.25097 13.8889 1.86717 11.0038 1.86717C8.50775 1.86717 8.41414 -0.22697 5.15056 0.365296C-0.193422 1.33148 -1.015 13.089 1.82 13.7052C3.39397 14.0472 4.18695 12.2219 6.26797 10.9118C6.57688 11.1402 6.93577 11.2916 7.3149 11.3535C7.69402 11.4155 8.08245 11.3862 8.44799 11.2681C8.81353 11.1499 9.14564 10.9464 9.4168 10.6743C9.68796 10.4021 9.89035 10.0693 10.0072 9.70336C10.3383 9.67468 10.6705 9.66045 11.0028 9.6607C11.3528 9.6607 11.6797 9.6757 11.9931 9.7028C12.1102 10.0688 12.313 10.4016 12.5845 10.6736C12.8559 10.9456 13.1884 11.149 13.5542 11.2668C13.9199 11.3847 14.3086 11.4136 14.6878 11.3513C15.067 11.2889 15.4259 11.1371 15.7347 10.9083C17.8183 12.2184 18.6112 14.0456 20.1857 13.7032C23.0202 13.089 22.1776 1.47614 16.857 0.365296ZM5.91266 6.37669H4.68716V5.13061H3.44047V3.90516H4.68706V2.65861H5.91256V3.90464H7.15859V5.13014H5.91256V6.37617L5.91266 6.37669ZM7.70436 10.5774C7.38603 10.5774 7.07486 10.483 6.81018 10.3061C6.54551 10.1293 6.33922 9.87788 6.21741 9.58379C6.0956 9.28969 6.06373 8.96607 6.12584 8.65386C6.18795 8.34165 6.34124 8.05487 6.56633 7.82978C6.79143 7.6047 7.07821 7.45141 7.39043 7.38931C7.70264 7.32721 8.02625 7.35909 8.32035 7.48091C8.61444 7.60273 8.86581 7.80902 9.04266 8.0737C9.21951 8.33838 9.31391 8.64956 9.31391 8.96789C9.31403 9.39475 9.14458 9.80417 8.84284 10.1061C8.5411 10.408 8.13178 10.5777 7.70492 10.5779L7.70436 10.5774ZM14.2951 10.5774C13.9768 10.5771 13.6657 10.4824 13.4012 10.3054C13.1367 10.1283 12.9307 9.87685 12.8091 9.58269C12.6875 9.28854 12.6559 8.96494 12.7182 8.65281C12.7805 8.34068 12.9339 8.05403 13.1591 7.82911C13.3843 7.60418 13.6712 7.45107 13.9834 7.38915C14.2956 7.32722 14.6191 7.35925 14.9132 7.48119C15.2072 7.60313 15.4584 7.80951 15.6351 8.07423C15.8119 8.33894 15.9061 8.65012 15.906 8.96841C15.906 9.17989 15.8643 9.3893 15.7834 9.58467C15.7024 9.78003 15.5837 9.95752 15.4341 10.107C15.2845 10.2565 15.1069 10.375 14.9114 10.4558C14.716 10.5366 14.5065 10.5781 14.295 10.5779L14.2951 10.5774ZM15.4053 5.32936C15.2447 5.32939 15.0877 5.28178 14.9541 5.19257C14.8206 5.10335 14.7165 4.97654 14.655 4.82815C14.5935 4.67977 14.5774 4.51649 14.6088 4.35896C14.6401 4.20143 14.7174 4.05673 14.831 3.94316C14.9446 3.82959 15.0893 3.75225 15.2468 3.72092C15.4043 3.6896 15.5676 3.70569 15.716 3.76717C15.8644 3.82864 15.9912 3.93274 16.0804 4.0663C16.1696 4.19986 16.2172 4.35687 16.2172 4.51748C16.2172 4.73284 16.1316 4.93938 15.9794 5.09167C15.8271 5.24395 15.6205 5.3295 15.4052 5.3295L15.4053 5.32936ZM17.164 7.08811C17.0034 7.08812 16.8464 7.0405 16.7128 6.95129C16.5793 6.86207 16.4752 6.73525 16.4137 6.58688C16.3523 6.43851 16.3362 6.27524 16.3675 6.11772C16.3988 5.96021 16.4762 5.81551 16.5897 5.70194C16.7033 5.58838 16.8479 5.51103 17.0055 5.47969C17.163 5.44835 17.3262 5.46442 17.4746 5.52587C17.623 5.58732 17.7498 5.69139 17.8391 5.82492C17.9283 5.95845 17.9759 6.11544 17.9759 6.27605C17.976 6.38289 17.955 6.4887 17.9141 6.5874C17.8732 6.68611 17.8132 6.77577 17.7376 6.85126C17.662 6.92674 17.5722 6.98656 17.4734 7.02728C17.3746 7.06801 17.2688 7.08884 17.162 7.08858L17.164 7.08811ZM17.164 3.57023C17.0034 3.57024 16.8464 3.52263 16.7128 3.43341C16.5793 3.34419 16.4752 3.21737 16.4137 3.069C16.3523 2.92062 16.3362 2.75735 16.3675 2.59983C16.3988 2.44231 16.4762 2.29762 16.5897 2.18405C16.7033 2.07049 16.848 1.99314 17.0055 1.96181C17.163 1.93047 17.3263 1.94655 17.4747 2.00801C17.623 2.06947 17.7499 2.17354 17.8391 2.30708C17.9283 2.44062 17.9759 2.59761 17.9759 2.75822C17.976 2.86506 17.955 2.97086 17.9141 3.06956C17.8732 3.16826 17.8132 3.25792 17.7376 3.3334C17.662 3.40888 17.5722 3.46869 17.4734 3.50941C17.3746 3.55013 17.2688 3.57096 17.162 3.5707L17.164 3.57023ZM18.9226 5.32889C18.762 5.32889 18.605 5.28127 18.4715 5.19204C18.338 5.10281 18.2339 4.976 18.1724 4.82762C18.111 4.67924 18.0949 4.51597 18.1262 4.35846C18.1575 4.20094 18.2349 4.05625 18.3484 3.94269C18.462 3.82913 18.6067 3.75179 18.7642 3.72046C18.9217 3.68913 19.085 3.70521 19.2334 3.76667C19.3817 3.82813 19.5086 3.93221 19.5978 4.06574C19.687 4.19928 19.7346 4.35627 19.7346 4.51687C19.7347 4.62373 19.7137 4.72954 19.6728 4.82825C19.6319 4.92697 19.5719 5.01664 19.4963 5.09212C19.4206 5.1676 19.3308 5.22742 19.2321 5.26814C19.1333 5.30886 19.0274 5.32968 18.9206 5.32941L18.9226 5.32889Z" fill="url(#paint0_linear_274_23)"/>
<defs>
<linearGradient id="paint0_linear_274_23" x1="0.218742" y1="6.99999" x2="21.7813" y2="6.99999" gradientUnits="userSpaceOnUse">
<stop stop-color="#4EB4BF"/>
<stop offset="1" stop-color="#2BD9A8"/>
</linearGradient>
</defs>
</svg>
