<svg width="18" height="16" viewBox="0 0 18 16" fill="none" xmlns="http://www.w3.org/2000/svg">
<path d="M4.475 16C3.24033 16 2.186 15.563 1.312 14.689C0.438 13.815 0.000666667 12.7603 0 11.525C0 10.3097 0.424667 9.26767 1.274 8.399C2.12333 7.53033 3.15567 7.08267 4.371 7.056C4.499 7.056 4.62733 7.06567 4.756 7.085C4.884 7.10433 5.012 7.12667 5.14 7.152L2.438 1.7C2.29667 1.43067 2.30267 1.16967 2.456 0.917001C2.60933 0.665001 2.83933 0.539001 3.146 0.539001H5.62C5.92667 0.539001 6.20833 0.619668 6.465 0.781002C6.72233 0.942335 6.92333 1.15767 7.068 1.427L9 5.307L10.93 1.427C11.0753 1.15767 11.2767 0.942335 11.534 0.781002C11.7907 0.619668 12.0723 0.539001 12.379 0.539001H14.837C15.1437 0.539001 15.3767 0.665001 15.536 0.917001C15.6953 1.17033 15.7047 1.43133 15.564 1.7L12.884 7.083C13 7.057 13.119 7.03767 13.241 7.025C13.3623 7.01167 13.4873 7.005 13.616 7.005C14.84 7.03633 15.8767 7.48633 16.726 8.355C17.5753 9.22367 18 10.272 18 11.5C18 12.7513 17.563 13.8143 16.689 14.689C15.815 15.5637 14.752 16.0007 13.5 16C13.3113 16 13.1187 15.9893 12.922 15.968C12.7253 15.9473 12.5393 15.9073 12.364 15.848C13.152 15.5047 13.705 14.921 14.023 14.097C14.341 13.273 14.5 12.4073 14.5 11.5C14.5 9.96533 13.967 8.665 12.901 7.599C11.835 6.533 10.5347 6 9 6C7.46533 6 6.165 6.533 5.099 7.599C4.033 8.665 3.5 9.96533 3.5 11.5C3.5 12.4153 3.64667 13.296 3.94 14.142C4.23333 14.9887 4.79667 15.5573 5.63 15.848C5.442 15.9073 5.253 15.9473 5.063 15.968C4.873 15.9887 4.677 15.9993 4.475 16ZM9 16C7.75 16 6.68767 15.5627 5.813 14.688C4.93833 13.8133 4.50067 12.7507 4.5 11.5C4.49933 10.2493 4.937 9.187 5.813 8.313C6.689 7.439 7.75133 7.00133 9 7C10.2487 6.99867 11.3113 7.43633 12.188 8.313C13.0647 9.18967 13.502 10.252 13.5 11.5C13.498 12.748 13.0607 13.8107 12.188 14.688C11.3153 15.5653 10.2527 16.0027 9 16ZM9 12.6L10.071 13.41C10.1583 13.4673 10.239 13.4683 10.313 13.413C10.387 13.3577 10.4077 13.2843 10.375 13.193L9.977 11.859L11.029 11.1C11.1157 11.0427 11.1423 10.9693 11.109 10.88C11.0757 10.7907 11.0117 10.746 10.917 10.746H9.61L9.192 9.352C9.15867 9.26133 9.09467 9.216 9 9.216C8.90533 9.216 8.84133 9.26133 8.808 9.352L8.391 10.746H7.083C6.98833 10.746 6.92433 10.7907 6.891 10.88C6.85767 10.9693 6.88433 11.0427 6.971 11.1L8.023 11.86L7.625 13.192C7.59167 13.2833 7.61233 13.3567 7.687 13.412C7.76167 13.4673 7.84233 13.4667 7.929 13.41L9 12.6Z" fill="url(#paint0_linear_274_31)"/>
<defs>
<linearGradient id="paint0_linear_274_31" x1="0" y1="8.26951" x2="18" y2="8.26951" gradientUnits="userSpaceOnUse">
<stop stop-color="#4EB4BF"/>
<stop offset="1" stop-color="#2BD9A8"/>
</linearGradient>
</defs>
</svg>
