<svg width="22" height="20" viewBox="0 0 22 20" fill="none" xmlns="http://www.w3.org/2000/svg">
<path d="M8.30501 0.769142C6.57251 0.759975 4.88584 2.42831 5.65584 4.49997H2.75001C2.26377 4.49997 1.79746 4.69313 1.45364 5.03695C1.10983 5.38076 0.916672 5.84708 0.916672 6.33331V8.16664C0.916672 8.40976 1.01325 8.64291 1.18516 8.81482C1.35707 8.98673 1.59022 9.08331 1.83334 9.08331H10.0833V6.33331H11.9167V9.08331H20.1667C20.4098 9.08331 20.6429 8.98673 20.8149 8.81482C20.9868 8.64291 21.0833 8.40976 21.0833 8.16664V6.33331C21.0833 5.84708 20.8902 5.38076 20.5464 5.03695C20.2026 4.69313 19.7362 4.49997 19.25 4.49997H16.3442C17.4167 1.50248 13.3833 -0.615025 11.5225 1.96997L11 2.66664L10.4775 1.95164C9.90001 1.13581 9.10251 0.778308 8.30501 0.769142ZM8.25001 2.66664C9.06584 2.66664 9.47834 3.65664 8.90084 4.23414C8.32334 4.81164 7.33334 4.39914 7.33334 3.58331C7.33334 3.34019 7.42992 3.10704 7.60182 2.93513C7.77373 2.76322 8.00689 2.66664 8.25001 2.66664ZM13.75 2.66664C14.5658 2.66664 14.9783 3.65664 14.4008 4.23414C13.8233 4.81164 12.8333 4.39914 12.8333 3.58331C12.8333 3.34019 12.9299 3.10704 13.1018 2.93513C13.2737 2.76322 13.5069 2.66664 13.75 2.66664ZM1.83334 9.99997V17.3333C1.83334 17.8195 2.02649 18.2859 2.37031 18.6297C2.71413 18.9735 3.18044 19.1666 3.66667 19.1666H18.3333C18.8196 19.1666 19.2859 18.9735 19.6297 18.6297C19.9735 18.2859 20.1667 17.8195 20.1667 17.3333V9.99997H11.9167V17.3333H10.0833V9.99997H1.83334Z" fill="url(#paint0_linear_274_27)"/>
<defs>
<linearGradient id="paint0_linear_274_27" x1="0.916672" y1="9.96787" x2="21.0833" y2="9.96787" gradientUnits="userSpaceOnUse">
<stop stop-color="#4EB4BF"/>
<stop offset="1" stop-color="#2BD9A8"/>
</linearGradient>
</defs>
</svg>
